<?xml version="1.0"?><!DOCTYPE svg PUBLIC "-//W3C//DTD SVG 1.1//EN" "http://www.w3.org/Graphics/SVG/1.1/DTD/svg11.dtd">
<svg xmlns="http://www.w3.org/2000/svg" version="1.1" width="737px" height="318px" viewBox="0 0 737 318">
    <style>.code{font: 16px; font-family: monospace; }</style>
    <rect x="0" y="0" width="737px" height="318px" fill="rgb(245, 245, 245)"/>
    <polyline points="358.6,127 358.6,138 179.6,138 179.6,152" fill="none" stroke="#76E381" stroke-width="2"></polyline>
    <polyline points="176.1,151 183.1,151 179.6,158 176.1,151 183.1,151" fill="#76E381"></polyline>
    <polyline points="368.6,127 368.6,148 547.6,148 547.6,152" fill="none" stroke="#FE5D5D" stroke-width="2"></polyline>
    <polyline points="544.1,151 551.1,151 547.6,158 544.1,151 551.1,151" fill="#FE5D5D"></polyline>
    <polyline points="557.6,217 557.6,232" fill="none" stroke="#65B7F6" stroke-width="2"></polyline>
    <polyline points="554.1,231 561.1,231 557.6,238 554.1,231 561.1,231" fill="#65B7F6"></polyline>
    <polyline points="179.6,217 179.6,228 547.6,228 547.6,232" fill="none" stroke="#65B7F6" stroke-width="2"></polyline>
    <polyline points="544.1,231 551.1,231 547.6,238 544.1,231 551.1,231" fill="#65B7F6"></polyline>
    <rect x="189.60000000000002" y="20" width="348" height="108" fill="rgb(255, 255, 255)" stroke="rgb(55, 55, 55)"
          stroke-width="1px"/>
    <text x="195.60000000000002" y="39" class="code" fill="rgb(128, 0, 0)">example:</text>
    <text x="272.400048828125" y="39" class="code" fill="rgb(0, 0, 0)">:saturate</text>
    <text x="195.60000000000002" y="71" class="code" fill="rgb(128, 0, 0)">start:</text>
    <text x="214.79995117187502" y="87" class="code" fill="rgb(0, 17, 136)">%_0</text>
    <text x="243.60000000000002" y="87" class="code" fill="rgb(0, 0, 0)"> = alloca </text>
    <text x="339.6" y="87" class="code" fill="rgb(0, 128, 128)">i32</text>
    <text x="368.400048828125" y="87" class="code" fill="rgb(0, 0, 0)">, </text>
    <text x="387.6" y="87" class="code" fill="rgb(0, 0, 255)">align</text>
    <text x="445.1999755859375" y="87" class="code" fill="rgb(9, 134, 88)">4</text>
    <text x="214.79995117187502" y="103" class="code" fill="rgb(0, 17, 136)">%_2</text>
    <text x="243.60000000000002" y="103" class="code" fill="rgb(0, 0, 0)"> = icmp sge </text>
    <text x="358.799951171875" y="103" class="code" fill="rgb(0, 128, 128)">i32</text>
    <text x="397.1999755859375" y="103" class="code" fill="rgb(0, 17, 136)">%x</text>
    <text x="416.400048828125" y="103" class="code" fill="rgb(0, 0, 0)">, </text>
    <text x="435.6" y="103" class="code" fill="rgb(9, 134, 88)">0</text>
    <text x="195.60000000000002" y="119" class="code" fill="rgb(0, 0, 0)">  br </text>
    <text x="243.60000000000002" y="119" class="code" fill="rgb(0, 128, 128)">i1</text>
    <text x="272.400048828125" y="119" class="code" fill="rgb(0, 17, 136)">%_2</text>
    <text x="301.1999755859375" y="119" class="code" fill="rgb(0, 0, 0)">, </text>
    <text x="320.400048828125" y="119" class="code" fill="rgb(0, 128, 128)">label</text>
    <text x="378.0000244140625" y="119" class="code" fill="rgb(0, 17, 136)">%bb1</text>
    <text x="416.400048828125" y="119" class="code" fill="rgb(0, 0, 0)">, </text>
    <text x="435.6" y="119" class="code" fill="rgb(0, 128, 128)">label</text>
    <text x="493.1999755859375" y="119" class="code" fill="rgb(0, 17, 136)">%bb2</text>
    <rect x="397.8" y="158" width="309.6" height="60" fill="rgb(255, 255, 255)" stroke="rgb(55, 55, 55)"
          stroke-width="1px"/>
    <text x="403.8" y="177" class="code" fill="rgb(128, 0, 0)">bb2:</text>
    <text x="403.8" y="193" class="code" fill="rgb(0, 0, 0)">  store </text>
    <text x="480.600048828125" y="193" class="code" fill="rgb(0, 128, 128)">i32</text>
    <text x="519.0000732421875" y="193" class="code" fill="rgb(9, 134, 88)">0</text>
    <text x="528.600048828125" y="193" class="code" fill="rgb(0, 0, 0)">, ptr </text>
    <text x="586.2000244140625" y="193" class="code" fill="rgb(0, 17, 136)">%_0</text>
    <text x="615.0000732421875" y="193" class="code" fill="rgb(0, 0, 0)">, </text>
    <text x="634.2000244140625" y="193" class="code" fill="rgb(0, 0, 255)">align</text>
    <text x="691.8" y="193" class="code" fill="rgb(9, 134, 88)">4</text>
    <text x="403.8" y="209" class="code" fill="rgb(0, 0, 0)">  br </text>
    <text x="451.8" y="209" class="code" fill="rgb(0, 128, 128)">label</text>
    <text x="509.40009765625" y="209" class="code" fill="rgb(0, 17, 136)">%bb3</text>
    <rect x="20" y="158" width="319.2" height="60" fill="rgb(255, 255, 255)" stroke="rgb(55, 55, 55)"
          stroke-width="1px"/>
    <text x="26" y="177" class="code" fill="rgb(128, 0, 0)">bb1:</text>
    <text x="26" y="193" class="code" fill="rgb(0, 0, 0)">  store </text>
    <text x="102.7999267578125" y="193" class="code" fill="rgb(0, 128, 128)">i32</text>
    <text x="141.199951171875" y="193" class="code" fill="rgb(0, 17, 136)">%x</text>
    <text x="160.4000244140625" y="193" class="code" fill="rgb(0, 0, 0)">, ptr </text>
    <text x="218" y="193" class="code" fill="rgb(0, 17, 136)">%_0</text>
    <text x="246.7999267578125" y="193" class="code" fill="rgb(0, 0, 0)">, </text>
    <text x="266" y="193" class="code" fill="rgb(0, 0, 255)">align</text>
    <text x="323.5999755859375" y="193" class="code" fill="rgb(9, 134, 88)">4</text>
    <text x="26" y="209" class="code" fill="rgb(0, 0, 0)">  br </text>
    <text x="74" y="209" class="code" fill="rgb(0, 128, 128)">label</text>
    <text x="131.5999755859375" y="209" class="code" fill="rgb(0, 17, 136)">%bb3</text>
    <rect x="388.20000000000005" y="238" width="328.8" height="60" fill="rgb(255, 255, 255)" stroke="rgb(55, 55, 55)"
          stroke-width="1px"/>
    <text x="394.20000000000005" y="257" class="code" fill="rgb(128, 0, 0)">bb3:</text>
    <text x="413.40007324218755" y="273" class="code" fill="rgb(0, 17, 136)">%0</text>
    <text x="432.60002441406255" y="273" class="code" fill="rgb(0, 0, 0)"> = load </text>
    <text x="509.40007324218755" y="273" class="code" fill="rgb(0, 128, 128)">i32</text>
    <text x="538.2" y="273" class="code" fill="rgb(0, 0, 0)">, ptr </text>
    <text x="595.7999755859375" y="273" class="code" fill="rgb(0, 17, 136)">%_0</text>
    <text x="624.6000244140625" y="273" class="code" fill="rgb(0, 0, 0)">, </text>
    <text x="643.7999755859375" y="273" class="code" fill="rgb(0, 0, 255)">align</text>
    <text x="701.4000732421875" y="273" class="code" fill="rgb(9, 134, 88)">4</text>
    <text x="394.20000000000005" y="289" class="code" fill="rgb(0, 0, 0)">  ret </text>
    <text x="451.79997558593755" y="289" class="code" fill="rgb(0, 128, 128)">i32</text>
    <text x="490.20000000000005" y="289" class="code" fill="rgb(0, 17, 136)">%0</text>
</svg>
